<svg width="137" height="38" viewBox="0 0 137 38" fill="none" xmlns="http://www.w3.org/2000/svg">
<rect y="2.96973" width="34" height="32.06" rx="4" fill="#01712D"/>
<path d="M19.849 21.7757L23.459 25.3517L21.764 27.0287L18.154 23.4537C18.002 23.3026 17.8216 23.1829 17.6232 23.1016C17.4249 23.0202 17.2124 22.9788 16.998 22.9797C16.558 22.9797 16.152 23.1467 15.842 23.4537L12.232 27.0297L10.538 25.3517L14.148 21.7757H19.849ZM20.451 20.7457L25.381 22.0517L26 19.7577L21.07 18.4507C20.8628 18.3967 20.6684 18.3022 20.4979 18.1726C20.3275 18.043 20.1844 17.881 20.077 17.6957C19.9693 17.5119 19.8994 17.3084 19.8714 17.0972C19.8434 16.886 19.8579 16.6713 19.914 16.4657L21.234 11.5837L18.918 10.9697L17.598 15.8537L20.448 20.7417L20.451 20.7457ZM13.549 20.7457L8.619 22.0517L8 19.7577L12.93 18.4507C13.1372 18.3967 13.3316 18.3022 13.5021 18.1726C13.6725 18.043 13.8156 17.881 13.923 17.6957C14.0307 17.5119 14.1006 17.3084 14.1286 17.0972C14.1566 16.886 14.1421 16.6713 14.086 16.4657L12.766 11.5837L15.082 10.9697L16.402 15.8537L13.552 20.7417L13.549 20.7457Z" fill="#FFFBE6"/>
<path d="M45.864 28C45.36 28 44.968 27.8693 44.688 27.608C44.4267 27.328 44.296 26.936 44.296 26.432V9.828C44.296 9.324 44.4267 8.94133 44.688 8.68C44.968 8.4 45.36 8.26 45.864 8.26H56.084C56.476 8.26 56.7747 8.36267 56.98 8.568C57.1853 8.75467 57.288 9.03467 57.288 9.408C57.288 9.8 57.1853 10.0987 56.98 10.304C56.7747 10.5093 56.476 10.612 56.084 10.612H47.096V16.8H55.468C55.8787 16.8 56.1773 16.9027 56.364 17.108C56.5693 17.3133 56.672 17.6027 56.672 17.976C56.672 18.368 56.5693 18.6667 56.364 18.872C56.1773 19.0587 55.8787 19.152 55.468 19.152H47.096V25.648H56.084C56.476 25.648 56.7747 25.7507 56.98 25.956C57.1853 26.1613 57.288 26.4507 57.288 26.824C57.288 27.216 57.1853 27.5147 56.98 27.72C56.7747 27.9067 56.476 28 56.084 28H45.864ZM60.7563 28.196C60.3083 28.196 59.9629 28.0747 59.7203 27.832C59.4776 27.5707 59.3563 27.216 59.3563 26.768V9.492C59.3563 9.02533 59.4776 8.67067 59.7203 8.428C59.9629 8.18533 60.3083 8.064 60.7563 8.064C61.2043 8.064 61.5496 8.18533 61.7923 8.428C62.0536 8.67067 62.1843 9.02533 62.1843 9.492V20.3H62.2403L67.4763 15.092C67.7749 14.7933 68.0456 14.56 68.2883 14.392C68.5309 14.224 68.8483 14.14 69.2403 14.14C69.6323 14.14 69.9309 14.2427 70.1363 14.448C70.3416 14.6533 70.4443 14.9053 70.4443 15.204C70.4443 15.484 70.3043 15.7733 70.0243 16.072L64.4803 21.56V20.244L70.5283 26.264C70.8269 26.5627 70.9669 26.8613 70.9483 27.16C70.9296 27.4587 70.8083 27.7107 70.5843 27.916C70.3603 28.1027 70.0803 28.196 69.7443 28.196C69.3149 28.196 68.9696 28.112 68.7083 27.944C68.4656 27.776 68.1763 27.524 67.8403 27.188L62.2403 21.756H62.1843V26.768C62.1843 27.72 61.7083 28.196 60.7563 28.196ZM78.309 28.252C76.9277 28.252 75.733 27.9627 74.725 27.384C73.7357 26.8053 72.961 25.984 72.401 24.92C71.841 23.856 71.561 22.6053 71.561 21.168C71.561 20.0667 71.7197 19.0867 72.037 18.228C72.3543 17.3693 72.8023 16.632 73.381 16.016C73.9783 15.3813 74.6877 14.9053 75.509 14.588C76.349 14.252 77.2823 14.084 78.309 14.084C79.6717 14.084 80.8477 14.3733 81.837 14.952C82.845 15.5307 83.629 16.352 84.189 17.416C84.749 18.4613 85.029 19.712 85.029 21.168C85.029 22.2507 84.8703 23.2307 84.553 24.108C84.2357 24.9853 83.7783 25.732 83.181 26.348C82.6023 26.964 81.893 27.44 81.053 27.776C80.2317 28.0933 79.317 28.252 78.309 28.252ZM78.309 26.068C79.0743 26.068 79.7463 25.8813 80.325 25.508C80.9037 25.1347 81.3517 24.584 81.669 23.856C82.005 23.128 82.173 22.232 82.173 21.168C82.173 19.5627 81.8183 18.3493 81.109 17.528C80.3997 16.7067 79.4663 16.296 78.309 16.296C77.525 16.296 76.8437 16.4827 76.265 16.856C75.6863 17.2107 75.229 17.752 74.893 18.48C74.5757 19.208 74.417 20.104 74.417 21.168C74.417 22.7547 74.7717 23.968 75.481 24.808C76.1903 25.648 77.133 26.068 78.309 26.068ZM87.281 28.196C86.9077 28.196 86.609 28.112 86.385 27.944C86.161 27.776 86.0304 27.552 85.993 27.272C85.9557 26.992 86.0117 26.6747 86.161 26.32L93.749 9.296C93.9357 8.848 94.169 8.53067 94.449 8.344C94.7477 8.15733 95.0744 8.064 95.429 8.064C95.765 8.064 96.073 8.15733 96.353 8.344C96.6517 8.53067 96.8944 8.848 97.081 9.296L104.669 26.32C104.837 26.6747 104.902 27.0013 104.865 27.3C104.828 27.58 104.706 27.804 104.501 27.972C104.296 28.1213 104.006 28.196 103.633 28.196C103.222 28.196 102.896 28.0933 102.653 27.888C102.41 27.6827 102.196 27.3653 102.009 26.936L100.049 22.4L101.365 23.184H89.437L90.725 22.4L88.793 26.936C88.6064 27.384 88.401 27.7107 88.177 27.916C87.953 28.1027 87.6544 28.196 87.281 28.196ZM95.373 11.48L91.145 21.504L90.445 20.832H100.329L99.685 21.504L95.429 11.48H95.373ZM107.982 28.196C107.534 28.196 107.189 28.0747 106.946 27.832C106.704 27.5707 106.582 27.216 106.582 26.768V9.492C106.582 9.02533 106.704 8.67067 106.946 8.428C107.189 8.18533 107.534 8.064 107.982 8.064C108.43 8.064 108.776 8.18533 109.018 8.428C109.28 8.67067 109.41 9.02533 109.41 9.492V20.3H109.466L114.702 15.092C115.001 14.7933 115.272 14.56 115.514 14.392C115.757 14.224 116.074 14.14 116.466 14.14C116.858 14.14 117.157 14.2427 117.362 14.448C117.568 14.6533 117.67 14.9053 117.67 15.204C117.67 15.484 117.53 15.7733 117.25 16.072L111.706 21.56V20.244L117.754 26.264C118.053 26.5627 118.193 26.8613 118.174 27.16C118.156 27.4587 118.034 27.7107 117.81 27.916C117.586 28.1027 117.306 28.196 116.97 28.196C116.541 28.196 116.196 28.112 115.934 27.944C115.692 27.776 115.402 27.524 115.066 27.188L109.466 21.756H109.41V26.768C109.41 27.72 108.934 28.196 107.982 28.196ZM124.442 28.252C123.62 28.252 122.771 28.1587 121.894 27.972C121.035 27.7853 120.242 27.468 119.514 27.02C119.271 26.852 119.103 26.6653 119.01 26.46C118.916 26.2547 118.879 26.0493 118.898 25.844C118.935 25.62 119.019 25.4333 119.15 25.284C119.299 25.116 119.476 25.0133 119.682 24.976C119.906 24.9387 120.139 24.9853 120.382 25.116C121.11 25.5267 121.81 25.816 122.482 25.984C123.154 26.1333 123.816 26.208 124.47 26.208C125.459 26.208 126.206 26.0307 126.71 25.676C127.214 25.3213 127.466 24.8453 127.466 24.248C127.466 23.7627 127.298 23.3893 126.962 23.128C126.626 22.848 126.122 22.6333 125.45 22.484L122.79 21.952C121.632 21.7093 120.755 21.28 120.158 20.664C119.56 20.048 119.262 19.264 119.262 18.312C119.262 17.4533 119.495 16.7067 119.962 16.072C120.428 15.4373 121.082 14.952 121.922 14.616C122.762 14.2613 123.732 14.084 124.834 14.084C125.655 14.084 126.43 14.1867 127.158 14.392C127.886 14.5973 128.558 14.9053 129.174 15.316C129.416 15.4467 129.575 15.624 129.65 15.848C129.724 16.0533 129.734 16.2587 129.678 16.464C129.64 16.6693 129.547 16.856 129.398 17.024C129.248 17.1733 129.062 17.2667 128.838 17.304C128.632 17.3227 128.399 17.2667 128.138 17.136C127.578 16.7813 127.018 16.5293 126.458 16.38C125.916 16.2307 125.375 16.156 124.834 16.156C123.844 16.156 123.098 16.3427 122.594 16.716C122.108 17.0707 121.866 17.556 121.866 18.172C121.866 18.6387 122.015 19.0213 122.314 19.32C122.612 19.6187 123.079 19.8333 123.714 19.964L126.374 20.496C127.587 20.7387 128.502 21.1493 129.118 21.728C129.752 22.3067 130.07 23.0907 130.07 24.08C130.07 25.368 129.556 26.3853 128.53 27.132C127.503 27.8787 126.14 28.252 124.442 28.252ZM133.496 28.168C133.048 28.168 132.703 28.0373 132.46 27.776C132.217 27.496 132.096 27.1133 132.096 26.628V15.708C132.096 15.2227 132.217 14.8493 132.46 14.588C132.703 14.3267 133.048 14.196 133.496 14.196C133.944 14.196 134.289 14.3267 134.532 14.588C134.793 14.8493 134.924 15.2227 134.924 15.708V26.628C134.924 27.1133 134.803 27.496 134.56 27.776C134.317 28.0373 133.963 28.168 133.496 28.168ZM133.496 11.284C132.936 11.284 132.497 11.144 132.18 10.864C131.881 10.584 131.732 10.192 131.732 9.688C131.732 9.16533 131.881 8.77333 132.18 8.512C132.497 8.232 132.936 8.092 133.496 8.092C134.056 8.092 134.485 8.232 134.784 8.512C135.101 8.77333 135.26 9.16533 135.26 9.688C135.26 10.192 135.101 10.584 134.784 10.864C134.485 11.144 134.056 11.284 133.496 11.284Z" fill="black"/>
</svg>
